<svg width="250" height="42" viewBox="0 0 250 42" fill="none" xmlns="http://www.w3.org/2000/svg">
<g clip-path="url(#clip0_13618_1208)">
<path d="M21.4218 41.9984C33.0194 41.9984 42.421 32.5967 42.421 20.9992C42.421 9.40165 33.0194 0 21.4218 0C9.82432 0 0.422668 9.40165 0.422668 20.9992C0.422668 32.5967 9.82432 41.9984 21.4218 41.9984Z" fill="#587D36"/>
<path d="M32.0251 23.7791C31.181 28.3104 27.2032 31.467 22.3401 31.467C19.4562 31.467 16.7956 30.3568 14.8494 28.34C12.9081 26.3314 11.8356 23.5853 11.8356 20.6225C11.8356 14.5031 16.3505 9.89135 22.3401 9.89135C24.5212 9.89135 26.6021 10.522 28.2838 11.6865C28.4776 11.8211 28.747 11.6782 28.747 11.4434V10.1065H31.9841V17.3411H28.1344C27.3608 14.9531 25.0155 13.3107 22.3418 13.3107C18.433 13.3107 15.4899 16.4542 15.4899 20.6242C15.4899 24.7941 18.433 28.0509 22.3418 28.0509C25.0533 28.0509 27.4577 26.2689 28.1459 23.7808H32.0251V23.7791Z" fill="white"/>
<path d="M206.334 7.61068H202.441V12.4343H206.334V7.61068Z" fill="#262A37"/>
<path d="M79.9601 11.2158H65.8736V19.5984H76.4388V22.8141H65.8736V31.5793H79.9601V34.7951H62.0452V8.00002H79.9601V11.2158Z" fill="#262A37"/>
<path d="M83.4853 15.2675L88.9971 30.5414L94.5466 15.2675H98.3749L90.9104 34.4059H87.0065L79.5814 15.2675H83.4853Z" fill="#262A37"/>
<path d="M108.273 34.6735C106.436 34.6735 104.81 34.2465 103.394 33.3908C101.978 32.5368 100.868 31.3559 100.063 29.8499C99.2602 28.3438 98.8578 26.621 98.8578 24.6814C98.8578 22.7418 99.2536 21.1602 100.045 19.705C100.835 18.2499 101.927 17.1019 103.317 16.2594C104.706 15.4168 106.283 14.9964 108.045 14.9964C109.807 14.9964 111.414 15.3856 112.792 16.1641C114.169 16.9426 115.242 18.0265 116.007 19.4176C116.773 20.8087 117.142 22.41 117.118 24.2215C117.118 24.527 117.104 24.8407 117.08 25.1593C117.053 25.4779 117.016 25.8294 116.965 26.2121H102.803C102.878 27.2336 103.166 28.1336 103.663 28.9104C104.161 29.6889 104.798 30.295 105.577 30.7285C106.355 31.1638 107.242 31.3789 108.237 31.3789C109.513 31.3789 110.624 31.1309 111.568 30.6316C112.512 30.134 113.176 29.4639 113.559 28.6214L116.697 29.7316C115.932 31.2886 114.815 32.5006 113.348 33.3678C111.88 34.235 110.19 34.6686 108.277 34.6686L108.273 34.6735ZM113.173 23.1129C113.173 22.1948 112.943 21.3655 112.484 20.6248C112.025 19.8857 111.405 19.3043 110.629 18.8839C109.85 18.4634 108.976 18.2515 108.007 18.2515C107.139 18.2515 106.342 18.4618 105.614 18.8839C104.887 19.3043 104.274 19.8791 103.777 20.6067C103.279 21.3343 102.967 22.1702 102.839 23.1146H113.174L113.173 23.1129Z" fill="#262A37"/>
<path d="M120.404 15.2674H123.925V17.4879C124.538 16.6979 125.316 16.0853 126.26 15.6517C127.205 15.2181 128.251 15.0013 129.399 15.0013C130.879 15.0013 132.161 15.315 133.245 15.9391C134.329 16.5648 135.172 17.4895 135.771 18.7147C136.371 19.9399 136.671 21.4706 136.671 23.3084V34.4091H133.073V23.7682C133.073 21.983 132.695 20.6231 131.943 19.6919C131.189 18.7607 130.099 18.2942 128.67 18.2942C127.241 18.2942 126.04 18.7722 125.224 19.7297C124.408 20.6872 123.999 22.0963 123.999 23.9587V34.4074H120.401V15.269L120.404 15.2674Z" fill="#262A37"/>
<path d="M141.413 15.2674V9.90842H145.049V15.2674H149.833V18.4832H145.049V27.8988C145.049 29.0731 145.286 29.9025 145.757 30.387C146.228 30.8715 146.828 31.1457 147.555 31.2098C148.283 31.2738 149.042 31.2541 149.833 31.1523V34.2531C148.787 34.483 147.759 34.552 146.752 34.4633C145.744 34.3746 144.839 34.0872 144.034 33.6027C143.231 33.1182 142.592 32.4104 142.121 31.4775C141.648 30.5463 141.413 29.3523 141.413 27.8988V18.4832H138.657V15.2674H141.413Z" fill="#262A37"/>
<path d="M154.921 28.357C155.1 29.1223 155.406 29.7218 155.841 30.1554C156.275 30.5906 156.79 30.9026 157.391 31.0931C157.991 31.2837 158.623 31.3806 159.287 31.3806C160.435 31.3806 161.328 31.1506 161.965 30.6924C162.603 30.2325 162.923 29.6594 162.923 28.9696C162.923 28.3832 162.724 27.9168 162.33 27.5719C161.934 27.227 161.41 26.9544 160.76 26.7491C160.11 26.5455 159.413 26.3533 158.674 26.1743C158.011 25.9953 157.29 25.7916 156.511 25.5617C155.733 25.3317 155.005 25.0197 154.33 24.6239C153.653 24.2281 153.098 23.719 152.665 23.0932C152.231 22.4675 152.014 21.6709 152.014 20.7003C152.014 19.5523 152.326 18.5505 152.952 17.6948C153.578 16.8408 154.445 16.1773 155.555 15.7043C156.665 15.2329 157.922 14.9964 159.326 14.9964C160.959 14.9964 162.394 15.3479 163.632 16.0491C164.869 16.7504 165.769 17.8032 166.331 19.2074L163.077 20.2799C162.898 19.7954 162.604 19.3996 162.197 19.0924C161.788 18.7853 161.323 18.5751 160.799 18.4618C160.275 18.3468 159.76 18.2893 159.249 18.2893C158.278 18.2893 157.475 18.4798 156.838 18.8641C156.199 19.2468 155.88 19.8085 155.88 20.5476C155.88 20.9565 155.982 21.2932 156.186 21.5625C156.39 21.8302 156.677 22.047 157.047 22.2129C157.416 22.3788 157.856 22.525 158.367 22.6531C158.878 22.7812 159.426 22.9208 160.013 23.0735C160.778 23.3034 161.556 23.5514 162.348 23.8191C163.138 24.0868 163.866 24.4268 164.529 24.8341C165.193 25.2431 165.728 25.7785 166.137 26.442C166.544 27.1055 166.763 27.9217 166.787 28.8907C166.787 30.0141 166.475 31.0094 165.85 31.8765C165.224 32.7453 164.343 33.4269 163.209 33.9246C162.072 34.4222 160.727 34.6702 159.17 34.6702C157.281 34.6702 155.674 34.2498 154.348 33.4072C153.021 32.5647 152.128 31.2639 151.669 29.5033L154.923 28.3553L154.921 28.357Z" fill="#262A37"/>
<path d="M178.141 34.6735C176.305 34.6735 174.684 34.2597 173.28 33.4303C171.875 32.6009 170.785 31.4594 170.006 30.0043C169.228 28.5492 168.839 26.8526 168.839 24.913C168.839 22.9734 169.234 21.2259 170.024 19.7445C170.814 18.2647 171.913 17.1036 173.316 16.2611C174.718 15.4185 176.352 14.9981 178.215 14.9981C180.179 14.9981 181.909 15.458 183.401 16.376C184.894 17.2958 185.972 18.5324 186.635 20.0894L183.382 21.2374C182.999 20.344 182.354 19.6295 181.449 19.0941C180.542 18.5587 179.516 18.291 178.368 18.291C177.22 18.291 176.185 18.5653 175.344 19.1138C174.501 19.6624 173.851 20.4277 173.391 21.4115C172.931 22.3936 172.703 23.5482 172.703 24.8752C172.703 26.8658 173.214 28.449 174.234 29.6216C175.254 30.7959 176.632 31.3823 178.368 31.3823C179.516 31.3823 180.544 31.1277 181.449 30.6169C182.354 30.1078 183.037 29.4049 183.497 28.5114L186.712 29.6594C185.998 31.1901 184.875 32.4087 183.344 33.3153C181.813 34.2219 180.077 34.6735 178.138 34.6735H178.141Z" fill="#262A37"/>
<path d="M189.701 15.2675H193.223V17.8328C193.76 17.1693 194.377 16.6142 195.079 16.1675C195.78 15.7208 196.545 15.4087 197.376 15.2297C198.206 15.0507 199.066 15.0638 199.961 15.2675V18.6737C199.119 18.4701 198.302 18.4438 197.511 18.5982C196.719 18.7509 196.011 19.0761 195.386 19.5737C194.76 20.0714 194.257 20.7283 193.873 21.5446C193.49 22.3608 193.298 23.3429 193.298 24.4926V34.4059H189.7V15.2675H189.701Z" fill="#262A37"/>
<path d="M202.569 15.2675H206.206V34.4059H202.569V15.2675Z" fill="#262A37"/>
<path d="M214.027 18.5209C214.613 17.5256 215.487 16.6896 216.648 16.013C217.809 15.3363 219.218 14.998 220.877 14.998C222.536 14.998 224.13 15.4069 225.433 16.2232C226.733 17.0411 227.748 18.1891 228.476 19.6689C229.204 21.1486 229.567 22.8715 229.567 24.8357C229.567 26.8 229.197 28.5228 228.456 30.0042C227.716 31.484 226.696 32.6336 225.395 33.4482C224.093 34.2661 222.586 34.6734 220.878 34.6734C219.321 34.6734 218.001 34.368 216.917 33.7554C215.831 33.1428 214.984 32.4037 214.371 31.5349V34.4057H210.811V7.61068H214.409V18.6342L214.027 18.5192V18.5209ZM225.663 24.8374C225.663 22.8731 225.145 21.2915 224.112 20.091C223.079 18.892 221.732 18.2926 220.074 18.2926C219.001 18.2926 218.045 18.5537 217.203 19.0776C216.36 19.6015 215.684 20.3472 215.175 21.3161C214.664 22.2868 214.409 23.4594 214.409 24.8374C214.409 26.2153 214.664 27.3962 215.175 28.3783C215.685 29.3604 216.362 30.1077 217.203 30.6168C218.045 31.1276 219.001 31.3822 220.074 31.3822C221.732 31.3822 223.078 30.7827 224.112 29.5838C225.145 28.3849 225.663 26.8033 225.663 24.8374Z" fill="#262A37"/>
<path d="M241.111 34.6735C239.273 34.6735 237.647 34.2465 236.231 33.3908C234.815 32.5368 233.705 31.3559 232.9 29.8499C232.096 28.3438 231.695 26.621 231.695 24.6814C231.695 22.7418 232.091 21.1602 232.882 19.705C233.672 18.2499 234.765 17.1019 236.156 16.2594C237.547 15.4168 239.122 14.9964 240.882 14.9964C242.643 14.9964 244.251 15.3856 245.629 16.1641C247.007 16.9426 248.079 18.0265 248.844 19.4176C249.61 20.8087 249.979 22.41 249.955 24.2215C249.955 24.527 249.942 24.8407 249.917 25.1593C249.891 25.4779 249.853 25.8294 249.802 26.2121H235.638C235.715 27.2336 236.003 28.1336 236.499 28.9104C236.996 29.6889 237.634 30.295 238.414 30.7285C239.192 31.1638 240.079 31.3789 241.074 31.3789C242.351 31.3789 243.461 31.1309 244.405 30.6316C245.35 30.134 246.013 29.4639 246.396 28.6214L249.534 29.7316C248.769 31.2886 247.652 32.5006 246.184 33.3678C244.716 34.235 243.026 34.6686 241.112 34.6686L241.111 34.6735ZM246.011 23.1129C246.011 22.1948 245.781 21.3655 245.322 20.6248C244.863 19.8857 244.243 19.3043 243.466 18.8839C242.687 18.4634 241.814 18.2515 240.843 18.2515C239.976 18.2515 239.178 18.4618 238.45 18.8839C237.722 19.3043 237.11 19.8791 236.612 20.6067C236.115 21.3343 235.802 22.1702 235.674 23.1146H246.01L246.011 23.1129Z" fill="#262A37"/>
</g>
<defs>
<clipPath id="clip0_13618_1208">
<rect width="249.909" height="42" fill="white" transform="translate(0.0453491)"/>
</clipPath>
</defs>
</svg>
